<svg width="123" height="123" viewBox="0 0 123 123" fill="none" xmlns="http://www.w3.org/2000/svg">
  <rect width="4.24138" height="4.24138" rx="2.12069" fill="#56CCF2" />
  <rect x="67.8621" width="4.24138" height="4.24138" rx="2.12069" fill="#56CCF2" />
  <rect y="67.8621" width="4.24138" height="4.24138" rx="2.12069" fill="#56CCF2" />
  <rect x="67.8621" y="67.8621" width="4.24138" height="4.24138" rx="2.12069" fill="#56CCF2" />
  <rect y="33.931" width="4.24138" height="4.24138" rx="2.12069" fill="#56CCF2" />
  <rect x="67.8621" y="33.931" width="4.24138" height="4.24138" rx="2.12069" fill="#56CCF2" />
  <rect y="101.793" width="4.24138" height="4.24138" rx="2.12069" fill="#56CCF2" />
  <rect x="67.8621" y="101.793" width="4.24138" height="4.24138" rx="2.12069" fill="#56CCF2" />
  <rect x="33.931" width="4.24138" height="4.24138" rx="2.12069" fill="#56CCF2" />
  <rect x="101.793" width="4.24138" height="4.24138" rx="2.12069" fill="#56CCF2" />
  <rect x="33.931" y="67.8621" width="4.24138" height="4.24138" rx="2.12069" fill="#56CCF2" />
  <rect x="101.793" y="67.8621" width="4.24138" height="4.24138" rx="2.12069" fill="#56CCF2" />
  <rect x="33.931" y="33.931" width="4.24138" height="4.24138" rx="2.12069" fill="#56CCF2" />
  <rect x="101.793" y="33.931" width="4.24138" height="4.24138" rx="2.12069" fill="#56CCF2" />
  <rect x="33.931" y="101.793" width="4.24138" height="4.24138" rx="2.12069" fill="#56CCF2" />
  <rect x="101.793" y="101.793" width="4.24138" height="4.24138" rx="2.12069" fill="#56CCF2" />
  <rect y="16.9655" width="4.24138" height="4.24138" rx="2.12069" fill="#56CCF2" />
  <rect x="67.8621" y="16.9655" width="4.24138" height="4.24138" rx="2.12069" fill="#56CCF2" />
  <rect y="84.8276" width="4.24138" height="4.24138" rx="2.12069" fill="#56CCF2" />
  <rect x="67.8621" y="84.8276" width="4.24138" height="4.24138" rx="2.12069" fill="#56CCF2" />
  <rect y="50.8965" width="4.24138" height="4.24138" rx="2.12069" fill="#56CCF2" />
  <rect x="67.8621" y="50.8965" width="4.24138" height="4.24138" rx="2.12069" fill="#56CCF2" />
  <rect y="118.759" width="4.24138" height="4.24138" rx="2.12069" fill="#56CCF2" />
  <rect x="67.8621" y="118.759" width="4.24138" height="4.24138" rx="2.12069" fill="#56CCF2" />
  <rect x="33.931" y="16.9655" width="4.24138" height="4.24138" rx="2.12069" fill="#56CCF2" />
  <rect x="101.793" y="16.9655" width="4.24138" height="4.24138" rx="2.12069" fill="#56CCF2" />
  <rect x="33.931" y="84.8276" width="4.24138" height="4.24138" rx="2.12069" fill="#56CCF2" />
  <rect x="101.793" y="84.8276" width="4.24138" height="4.24138" rx="2.12069" fill="#56CCF2" />
  <rect x="33.931" y="50.8965" width="4.24138" height="4.24138" rx="2.12069" fill="#56CCF2" />
  <rect x="101.793" y="50.8965" width="4.24138" height="4.24138" rx="2.12069" fill="#56CCF2" />
  <rect x="33.931" y="118.759" width="4.24138" height="4.24138" rx="2.12069" fill="#56CCF2" />
  <rect x="101.793" y="118.759" width="4.24138" height="4.24138" rx="2.12069" fill="#56CCF2" />
  <rect x="16.9655" width="4.24138" height="4.24138" rx="2.12069" fill="#56CCF2" />
  <rect x="84.8276" width="4.24138" height="4.24138" rx="2.12069" fill="#56CCF2" />
  <rect x="16.9655" y="67.8621" width="4.24138" height="4.24138" rx="2.12069" fill="#56CCF2" />
  <rect x="84.8276" y="67.8621" width="4.24138" height="4.24138" rx="2.12069" fill="#56CCF2" />
  <rect x="16.9655" y="33.931" width="4.24138" height="4.24138" rx="2.12069" fill="#56CCF2" />
  <rect x="84.8276" y="33.931" width="4.24138" height="4.24138" rx="2.12069" fill="#56CCF2" />
  <rect x="16.9655" y="101.793" width="4.24138" height="4.24138" rx="2.12069" fill="#56CCF2" />
  <rect x="84.8276" y="101.793" width="4.24138" height="4.24138" rx="2.12069" fill="#56CCF2" />
  <rect x="50.8965" width="4.24138" height="4.24138" rx="2.12069" fill="#56CCF2" />
  <rect x="118.759" width="4.24138" height="4.24138" rx="2.12069" fill="#56CCF2" />
  <rect x="50.8965" y="67.8621" width="4.24138" height="4.24138" rx="2.12069" fill="#56CCF2" />
  <rect x="118.759" y="67.8621" width="4.24138" height="4.24138" rx="2.12069" fill="#56CCF2" />
  <rect x="50.8965" y="33.931" width="4.24138" height="4.24138" rx="2.12069" fill="#56CCF2" />
  <rect x="118.759" y="33.931" width="4.24138" height="4.24138" rx="2.12069" fill="#56CCF2" />
  <rect x="50.8965" y="101.793" width="4.24138" height="4.24138" rx="2.12069" fill="#56CCF2" />
  <rect x="118.759" y="101.793" width="4.24138" height="4.24138" rx="2.12069" fill="#56CCF2" />
  <rect x="16.9655" y="16.9655" width="4.24138" height="4.24138" rx="2.12069" fill="#56CCF2" />
  <rect x="84.8276" y="16.9655" width="4.24138" height="4.24138" rx="2.12069" fill="#56CCF2" />
  <rect x="16.9655" y="84.8276" width="4.24138" height="4.24138" rx="2.12069" fill="#56CCF2" />
  <rect x="84.8276" y="84.8276" width="4.24138" height="4.24138" rx="2.12069" fill="#56CCF2" />
  <rect x="16.9655" y="50.8965" width="4.24138" height="4.24138" rx="2.12069" fill="#56CCF2" />
  <rect x="84.8276" y="50.8965" width="4.24138" height="4.24138" rx="2.12069" fill="#56CCF2" />
  <rect x="16.9655" y="118.759" width="4.24138" height="4.24138" rx="2.12069" fill="#56CCF2" />
  <rect x="84.8276" y="118.759" width="4.24138" height="4.24138" rx="2.12069" fill="#56CCF2" />
  <rect x="50.8965" y="16.9655" width="4.24138" height="4.24138" rx="2.12069" fill="#56CCF2" />
  <rect x="118.759" y="16.9655" width="4.24138" height="4.24138" rx="2.12069" fill="#56CCF2" />
  <rect x="50.8965" y="84.8276" width="4.24138" height="4.24138" rx="2.12069" fill="#56CCF2" />
  <rect x="118.759" y="84.8276" width="4.24138" height="4.24138" rx="2.12069" fill="#56CCF2" />
  <rect x="50.8965" y="50.8965" width="4.24138" height="4.24138" rx="2.12069" fill="#56CCF2" />
  <rect x="118.759" y="50.8965" width="4.24138" height="4.24138" rx="2.12069" fill="#56CCF2" />
  <rect x="50.8965" y="118.759" width="4.24138" height="4.24138" rx="2.12069" fill="#56CCF2" />
  <rect x="118.759" y="118.759" width="4.24138" height="4.24138" rx="2.12069" fill="#56CCF2" />
</svg>